<svg xmlns="http://www.w3.org/2000/svg" xmlns:xlink="http://www.w3.org/1999/xlink" width="500" zoomAndPan="magnify" viewBox="0 0 375 374.999991" height="500" preserveAspectRatio="xMidYMid meet" version="1.0"><defs><clipPath id="effe16c37c"><path d="M 23.90625 23.90625 L 342.65625 23.90625 L 342.65625 342.65625 L 23.90625 342.65625 Z M 23.90625 23.90625 " clip-rule="nonzero"/></clipPath><clipPath id="604911ee1f"><path d="M 64 210 L 303 210 L 303 342.65625 L 64 342.65625 Z M 64 210 " clip-rule="nonzero"/></clipPath></defs><g clip-path="url(#effe16c37c)"><path fill="#426b1f" d="M 342.671875 183.289062 C 342.671875 224.0625 327.371094 261.25 302.175781 289.433594 C 272.996094 322.109375 230.546875 342.667969 183.289062 342.667969 C 136.035156 342.667969 93.574219 322.109375 64.40625 289.433594 C 39.210938 261.25 23.910156 224.0625 23.910156 183.289062 C 23.910156 95.269531 95.257812 23.910156 183.289062 23.910156 C 271.308594 23.910156 342.671875 95.269531 342.671875 183.289062 " fill-opacity="1" fill-rule="nonzero"/></g><path fill="#f2f2f2" d="M 183.289062 212.648438 C 212.175781 212.648438 238.488281 179.964844 238.488281 144.078125 C 238.488281 110.175781 231.929688 76.644531 183.289062 76.644531 C 134.644531 76.644531 128.085938 110.175781 128.085938 144.078125 C 128.085938 179.964844 154.398438 212.648438 183.289062 212.648438 " fill-opacity="1" fill-rule="nonzero"/><g clip-path="url(#604911ee1f)"><path fill="#f2f2f2" d="M 302.175781 289.433594 C 272.996094 322.109375 230.546875 342.667969 183.289062 342.667969 C 136.035156 342.667969 93.574219 322.109375 64.40625 289.433594 C 63.902344 269.75 77.011719 224.140625 143.871094 210.105469 C 155.304688 221.777344 169.382812 228.378906 183.289062 228.378906 C 197.195312 228.378906 211.261719 221.777344 222.695312 210.105469 C 289.570312 224.140625 302.667969 269.75 302.175781 289.433594 " fill-opacity="1" fill-rule="nonzero"/></g></svg>