<svg xmlns="http://www.w3.org/2000/svg" xmlns:xlink="http://www.w3.org/1999/xlink" width="500" zoomAndPan="magnify" viewBox="0 0 375 374.999991" height="500" preserveAspectRatio="xMidYMid meet" version="1.0"><defs><clipPath id="b3517e1c69"><path d="M 107 145 L 261 145 L 261 224 L 107 224 Z M 107 145 " clip-rule="nonzero"/></clipPath><clipPath id="600a89cbed"><path d="M 105.738281 158.65625 L 253.136719 130.851562 L 269.261719 216.34375 L 121.863281 244.148438 Z M 105.738281 158.65625 " clip-rule="nonzero"/></clipPath><clipPath id="d9a2c1de35"><path d="M 105.738281 158.65625 L 253.136719 130.851562 L 269.261719 216.34375 L 121.863281 244.148438 Z M 105.738281 158.65625 " clip-rule="nonzero"/></clipPath><clipPath id="0698feefdf"><path d="M 105.738281 158.65625 L 253.136719 130.851562 L 269.261719 216.34375 L 121.863281 244.148438 Z M 105.738281 158.65625 " clip-rule="nonzero"/></clipPath><clipPath id="be611c2b24"><path d="M 105.78125 158.648438 L 253.175781 130.84375 L 269.316406 216.421875 L 121.921875 244.222656 Z M 105.78125 158.648438 " clip-rule="nonzero"/></clipPath><clipPath id="cb6fab20fa"><path d="M 105.78125 158.648438 L 253.097656 130.859375 L 269.222656 216.351562 L 121.90625 244.136719 Z M 105.78125 158.648438 " clip-rule="nonzero"/></clipPath></defs><g clip-path="url(#b3517e1c69)"><g clip-path="url(#600a89cbed)"><g clip-path="url(#d9a2c1de35)"><g clip-path="url(#0698feefdf)"><g clip-path="url(#be611c2b24)"><g clip-path="url(#cb6fab20fa)"><path fill="#fde164" d="M 114.460938 168.609375 C 120.898438 173.082031 127.222656 177.695312 133.785156 181.941406 C 137.328125 184.230469 142.300781 182.945312 144.71875 179.453125 C 145.601562 178.179688 146.230469 176.519531 146.375 174.980469 C 146.871094 169.636719 147.101562 164.269531 147.429688 158.949219 C 143.984375 157.261719 142.921875 155.113281 144.3125 152.761719 C 145.476562 150.796875 147.914062 150.230469 149.820312 151.480469 C 152.03125 152.933594 152.140625 155.292969 150.066406 157.941406 C 153.523438 162.886719 156.902344 167.921875 160.488281 172.804688 C 164.671875 178.496094 172.734375 177.507812 175.609375 171.050781 C 175.835938 170.535156 176.042969 170.007812 176.242188 169.480469 C 178.34375 163.890625 180.445312 158.296875 182.285156 153.394531 C 181.441406 151.539062 180.519531 150.25 180.304688 148.851562 C 180.035156 147.085938 181.089844 145.734375 182.878906 145.222656 C 184.78125 144.675781 186.417969 145.15625 187.425781 146.941406 C 188.351562 148.585938 188.308594 150.402344 186.804688 151.546875 C 185.386719 152.621094 185.660156 153.582031 186.113281 154.894531 C 187.894531 160.015625 189.640625 165.148438 191.328125 170.300781 C 192.46875 173.785156 194.539062 176.238281 198.285156 176.914062 C 202.199219 177.621094 205.117188 176.027344 207.414062 172.917969 C 210.769531 168.378906 214.195312 163.894531 217.296875 159.777344 C 217.023438 157.921875 216.527344 156.398438 216.679688 154.941406 C 216.769531 154.101562 217.761719 153.128906 218.59375 152.648438 C 220.625 151.472656 223.125 152.585938 223.914062 154.816406 C 224.773438 157.238281 223.546875 159.125 220.292969 160.132812 C 220.46875 165.777344 220.363281 171.515625 220.902344 177.191406 C 221.5 183.488281 228.394531 186.769531 233.808594 183.453125 C 240.242188 179.507812 246.519531 175.316406 252.832031 171.253906 C 252.140625 167.359375 253.253906 165.105469 255.914062 164.851562 C 258.042969 164.648438 260.015625 166.289062 260.144531 168.367188 C 260.328125 171.328125 258.625 172.660156 254.664062 172.566406 C 246.945312 189.5 239.207031 206.476562 231.460938 223.472656 C 224.28125 219.035156 216.394531 217.273438 208.445312 216.277344 C 198.792969 215.070312 189.054688 214.214844 179.332031 214 C 166.6875 213.71875 154.09375 214.78125 141.832031 218.277344 C 140.480469 218.664062 139.148438 219.144531 137.851562 219.6875 C 136.5625 220.226562 135.328125 220.902344 133.890625 221.601562 C 132.070312 217.175781 130.257812 212.757812 128.441406 208.339844 C 123.402344 196.085938 118.355469 183.835938 113.332031 171.574219 C 112.976562 170.703125 112.777344 170.015625 111.492188 170.058594 C 108.664062 170.160156 107.0625 168.367188 107.347656 165.746094 C 107.589844 163.476562 109.550781 162.074219 111.90625 162.480469 C 114.261719 162.886719 115.441406 165.035156 114.753906 167.65625 C 114.683594 167.917969 114.59375 168.175781 114.460938 168.609375 " fill-opacity="1" fill-rule="nonzero"/></g></g></g></g></g></g></svg>