<svg xmlns="http://www.w3.org/2000/svg" xmlns:xlink="http://www.w3.org/1999/xlink" width="500" zoomAndPan="magnify" viewBox="0 0 375 374.999991" height="500" preserveAspectRatio="xMidYMid meet" version="1.0"><defs><clipPath id="bc4e85ec2a"><path d="M 116.53125 112.5 L 258.28125 112.5 L 258.28125 254 L 116.53125 254 Z M 116.53125 112.5 " clip-rule="nonzero"/></clipPath><clipPath id="8860446f07"><path d="M 152.90625 134.535156 L 221.421875 134.535156 L 221.421875 262.5 L 152.90625 262.5 Z M 152.90625 134.535156 " clip-rule="nonzero"/></clipPath><clipPath id="ee61cd78d1"><path d="M 205.410156 222.15625 L 233.710938 222.15625 L 233.710938 262.5 L 205.410156 262.5 Z M 205.410156 222.15625 " clip-rule="nonzero"/></clipPath><clipPath id="f1efafa5ef"><path d="M 141 222.15625 L 169.289062 222.15625 L 169.289062 262.5 L 141 262.5 Z M 141 222.15625 " clip-rule="nonzero"/></clipPath><clipPath id="13fdf2aa97"><path d="M 152.535156 222.53125 L 221.792969 222.53125 L 221.792969 262.5 L 152.535156 262.5 Z M 152.535156 222.53125 " clip-rule="nonzero"/></clipPath><clipPath id="dd6ea8dd30"><path d="M 150.300781 221 L 181 221 L 181 262.5 L 150.300781 262.5 Z M 150.300781 221 " clip-rule="nonzero"/></clipPath><clipPath id="105597399b"><path d="M 192.378906 221 L 223.65625 221 L 223.65625 262.5 L 192.378906 262.5 Z M 192.378906 221 " clip-rule="nonzero"/></clipPath></defs><g clip-path="url(#bc4e85ec2a)"><path fill="#a6ce88" d="M 258.039062 183.230469 C 258.039062 222.300781 226.40625 253.976562 187.386719 253.976562 C 148.367188 253.976562 116.738281 222.300781 116.738281 183.230469 C 116.738281 144.160156 148.367188 112.484375 187.386719 112.484375 C 226.40625 112.484375 258.039062 144.160156 258.039062 183.230469 " fill-opacity="1" fill-rule="nonzero"/></g><g clip-path="url(#8860446f07)"><path fill="#191823" d="M 219.640625 262.5 C 220.714844 239.179688 221.300781 182.851562 221.300781 177.234375 C 221.300781 148.378906 205.992188 134.585938 187.109375 134.585938 C 168.222656 134.585938 152.910156 148.378906 152.910156 177.234375 C 152.910156 182.851562 153.496094 239.179688 154.574219 262.5 L 219.640625 262.5 " fill-opacity="1" fill-rule="nonzero"/></g><g clip-path="url(#ee61cd78d1)"><path fill="#037e5d" d="M 218.433594 262.5 L 233.699219 262.5 C 233.621094 260.570312 233.578125 259.46875 233.578125 259.46875 C 233.78125 221.21875 206.4375 222.371094 206.4375 222.371094 C 201.910156 222.371094 218.238281 255.910156 218.238281 259.46875 C 218.238281 259.46875 218.308594 260.570312 218.433594 262.5 " fill-opacity="1" fill-rule="nonzero"/></g><g clip-path="url(#f1efafa5ef)"><path fill="#037e5d" d="M 156.34375 262.5 C 156.46875 260.570312 156.539062 259.46875 156.539062 259.46875 C 156.539062 255.910156 172.867188 222.371094 168.339844 222.371094 C 168.339844 222.371094 140.992188 221.21875 141.199219 259.46875 C 141.199219 259.46875 141.15625 260.570312 141.078125 262.5 L 156.34375 262.5 " fill-opacity="1" fill-rule="nonzero"/></g><g clip-path="url(#13fdf2aa97)"><path fill="#ffffff" d="M 220.785156 262.5 C 223.183594 244.101562 221.464844 222.871094 199.484375 222.871094 L 174.730469 222.871094 C 152.605469 222.050781 151.050781 243.726562 153.554688 262.5 L 220.785156 262.5 " fill-opacity="1" fill-rule="nonzero"/></g><g clip-path="url(#dd6ea8dd30)"><path fill="#31ab70" d="M 180.902344 262.5 L 180.902344 221.035156 L 173.960938 221.035156 C 150.738281 220.171875 148.9375 242.746094 151.5 262.5 L 180.902344 262.5 " fill-opacity="1" fill-rule="nonzero"/></g><g clip-path="url(#105597399b)"><path fill="#31ab70" d="M 222.738281 262.5 C 225.183594 243.144531 223.214844 221.035156 200.144531 221.035156 L 192.535156 221.035156 L 192.535156 262.5 L 222.738281 262.5 " fill-opacity="1" fill-rule="nonzero"/></g><path fill="#d5815b" d="M 199.8125 221.035156 C 199.8125 221.035156 198.03125 229.9375 187.128906 229.945312 C 176.222656 229.953125 174.496094 221.035156 174.496094 221.035156 C 174.496094 221.035156 175.960938 212.171875 174.496094 207.222656 C 172.675781 201.050781 201.867188 200.601562 199.8125 207.222656 C 197.761719 213.839844 199.8125 221.035156 199.8125 221.035156 " fill-opacity="1" fill-rule="nonzero"/><path fill="#d5815b" d="M 218.617188 179.554688 C 217.757812 184.398438 215.136719 187.976562 212.761719 187.554688 C 210.390625 187.128906 209.167969 182.863281 210.03125 178.019531 C 210.894531 173.175781 213.515625 169.59375 215.886719 170.019531 C 218.257812 170.441406 219.480469 174.710938 218.617188 179.554688 " fill-opacity="1" fill-rule="nonzero"/><path fill="#d5815b" d="M 155.410156 179.554688 C 156.273438 184.398438 158.894531 187.976562 161.265625 187.554688 C 163.636719 187.128906 164.863281 182.863281 163.996094 178.019531 C 163.136719 173.175781 160.515625 169.59375 158.140625 170.019531 C 155.769531 170.441406 154.546875 174.710938 155.410156 179.554688 " fill-opacity="1" fill-rule="nonzero"/><path fill="#f8a06f" d="M 214.625 174.21875 C 214.597656 191.117188 202.324219 213.042969 187.148438 213.042969 C 171.976562 213.042969 159.675781 191.117188 159.675781 174.21875 C 159.675781 151.722656 171.976562 140.871094 187.148438 140.871094 C 202.324219 140.871094 214.660156 151.382812 214.625 174.21875 " fill-opacity="1" fill-rule="nonzero"/><path fill="#191823" d="M 205.644531 156.175781 C 205.644531 156.175781 208.351562 172.851562 209.753906 176.449219 C 209.753906 176.449219 169.132812 178.785156 169.132812 151.609375 C 169.132812 151.609375 158.476562 173.132812 163.609375 183.066406 C 163.609375 183.066406 157.109375 179.984375 157.277344 168.335938 C 157.277344 168.335938 152.570312 136.480469 187.167969 134.59375 C 187.167969 134.59375 218.894531 133.054688 216.464844 166.109375 C 216.464844 166.109375 217.574219 179.878906 210.988281 183.066406 C 210.988281 183.066406 215.570312 162.570312 205.644531 156.175781 " fill-opacity="1" fill-rule="nonzero"/></svg>