<svg xmlns="http://www.w3.org/2000/svg" xmlns:xlink="http://www.w3.org/1999/xlink" width="500" zoomAndPan="magnify" viewBox="0 0 375 374.999991" height="500" preserveAspectRatio="xMidYMid meet" version="1.0"><defs><clipPath id="2c98b75560"><path d="M 116.53125 112.5 L 258.28125 112.5 L 258.28125 254 L 116.53125 254 Z M 116.53125 112.5 " clip-rule="nonzero"/></clipPath><clipPath id="a1cc25aa6c"><path d="M 206 221.410156 L 234.828125 221.410156 L 234.828125 262.5 L 206 262.5 Z M 206 221.410156 " clip-rule="nonzero"/></clipPath><clipPath id="9cafaa8872"><path d="M 140 221.410156 L 168.917969 221.410156 L 168.917969 262.5 L 140 262.5 Z M 140 221.410156 " clip-rule="nonzero"/></clipPath><clipPath id="e0840552f4"><path d="M 149.554688 220 L 224.402344 220 L 224.402344 262.5 L 149.554688 262.5 Z M 149.554688 220 " clip-rule="nonzero"/></clipPath></defs><g clip-path="url(#2c98b75560)"><path fill="#f8a1d4" d="M 258.039062 183.230469 C 258.039062 222.300781 226.40625 253.976562 187.386719 253.976562 C 148.367188 253.976562 116.738281 222.300781 116.738281 183.230469 C 116.738281 144.160156 148.367188 112.484375 187.386719 112.484375 C 226.40625 112.484375 258.039062 144.160156 258.039062 183.230469 " fill-opacity="1" fill-rule="nonzero"/></g><g clip-path="url(#a1cc25aa6c)"><path fill="#413687" d="M 219.140625 262.5 L 234.753906 262.5 C 234.675781 260.511719 234.628906 259.375 234.628906 259.375 C 234.839844 220.25 206.871094 221.429688 206.871094 221.429688 C 202.242188 221.429688 218.941406 255.734375 218.941406 259.375 C 218.941406 259.375 219.015625 260.511719 219.140625 262.5 " fill-opacity="1" fill-rule="nonzero"/></g><g clip-path="url(#9cafaa8872)"><path fill="#413687" d="M 155.632812 262.5 C 155.761719 260.511719 155.832031 259.375 155.832031 259.375 C 155.832031 255.734375 172.535156 221.429688 167.902344 221.429688 C 167.902344 221.429688 139.933594 220.25 140.144531 259.375 C 140.144531 259.375 140.097656 260.511719 140.019531 262.5 L 155.632812 262.5 " fill-opacity="1" fill-rule="nonzero"/></g><g clip-path="url(#e0840552f4)"><path fill="#4b3a9d" d="M 223.542969 262.5 C 226.050781 242.699219 224.042969 220.066406 200.433594 220.066406 L 173.65625 220.066406 C 149.894531 219.179688 148.058594 242.292969 150.6875 262.5 L 223.542969 262.5 " fill-opacity="1" fill-rule="nonzero"/></g><path fill="#84482a" d="M 219.585938 219.605469 C 221.1875 213.476562 222.078125 182.261719 222.078125 175.261719 C 222.078125 145.75 206.417969 131.640625 187.101562 131.640625 C 167.785156 131.640625 152.125 145.75 152.125 175.261719 C 152.125 182.261719 153.015625 213.476562 154.617188 219.605469 L 219.585938 219.605469 " fill-opacity="1" fill-rule="nonzero"/><path fill="#d5815b" d="M 200.097656 220.066406 C 200.097656 220.066406 198.277344 229.167969 187.121094 229.179688 C 175.96875 229.1875 174.203125 220.066406 174.203125 220.066406 C 174.203125 220.066406 175.703125 210.996094 174.203125 205.933594 C 172.339844 199.625 202.195312 199.164062 200.097656 205.933594 C 198 212.707031 200.097656 220.066406 200.097656 220.066406 " fill-opacity="1" fill-rule="nonzero"/><path fill="#f8a06f" d="M 219.332031 177.636719 C 218.449219 182.589844 215.769531 186.253906 213.34375 185.820312 C 210.914062 185.386719 209.664062 181.019531 210.550781 176.066406 C 211.429688 171.113281 214.109375 167.449219 216.539062 167.882812 C 218.964844 168.316406 220.214844 172.683594 219.332031 177.636719 " fill-opacity="1" fill-rule="nonzero"/><path fill="#f8a06f" d="M 154.679688 177.636719 C 155.5625 182.589844 158.246094 186.253906 160.671875 185.820312 C 163.097656 185.386719 164.347656 181.019531 163.464844 176.066406 C 162.582031 171.113281 159.898438 167.449219 157.476562 167.882812 C 155.050781 168.316406 153.796875 172.683594 154.679688 177.636719 " fill-opacity="1" fill-rule="nonzero"/><path fill="#f8a06f" d="M 215.246094 172.179688 C 215.222656 189.464844 202.664062 211.890625 187.144531 211.890625 C 171.625 211.890625 159.042969 189.464844 159.042969 172.179688 C 159.042969 149.171875 171.625 138.074219 187.144531 138.074219 C 202.664062 138.074219 215.285156 148.820312 215.246094 172.179688 " fill-opacity="1" fill-rule="nonzero"/><path fill="#84482a" d="M 210.265625 163.191406 C 210.265625 163.191406 208.828125 164.9375 210.265625 168.617188 L 164.816406 168.617188 C 164.816406 168.617188 165.5 164.949219 163.746094 163.191406 C 163.746094 163.191406 157.820312 171.070312 163.066406 181.230469 C 163.066406 181.230469 156.417969 178.078125 156.59375 166.164062 C 156.59375 166.164062 151.773438 133.582031 187.160156 131.652344 C 187.160156 131.652344 219.613281 130.074219 217.128906 163.886719 C 217.128906 163.886719 218.265625 177.96875 211.527344 181.230469 C 211.527344 181.230469 214.777344 171.074219 210.265625 163.191406 " fill-opacity="1" fill-rule="nonzero"/></svg>