<svg xmlns="http://www.w3.org/2000/svg" xmlns:xlink="http://www.w3.org/1999/xlink" width="500" zoomAndPan="magnify" viewBox="0 0 375 374.999991" height="500" preserveAspectRatio="xMidYMid meet" version="1.0"><defs><clipPath id="6b3c2830dc"><path d="M 112.5 112.5 L 262.5 112.5 L 262.5 262.5 L 112.5 262.5 Z M 112.5 112.5 " clip-rule="nonzero"/></clipPath><clipPath id="fa9dc58c0a"><path d="M 172.195312 208.023438 L 202.699219 208.023438 L 202.699219 228.894531 L 172.195312 228.894531 Z M 172.195312 208.023438 " clip-rule="nonzero"/></clipPath><clipPath id="2b4b9c2ee8"><path d="M 262.484375 187.472656 C 262.484375 228.886719 228.914062 262.460938 187.5 262.460938 C 146.085938 262.460938 112.515625 228.886719 112.515625 187.472656 C 112.515625 146.058594 146.085938 112.488281 187.5 112.488281 C 228.914062 112.488281 262.484375 146.058594 262.484375 187.472656 " clip-rule="nonzero"/></clipPath><clipPath id="ddd36e1990"><path d="M 172.195312 212.304688 L 202.699219 212.304688 L 202.699219 223.542969 L 172.195312 223.542969 Z M 172.195312 212.304688 " clip-rule="nonzero"/></clipPath><clipPath id="0fa91e76f8"><path d="M 262.484375 187.472656 C 262.484375 228.886719 228.914062 262.460938 187.5 262.460938 C 146.085938 262.460938 112.515625 228.886719 112.515625 187.472656 C 112.515625 146.058594 146.085938 112.488281 187.5 112.488281 C 228.914062 112.488281 262.484375 146.058594 262.484375 187.472656 " clip-rule="nonzero"/></clipPath><clipPath id="53490abe7c"><path d="M 154.535156 131 L 220.359375 131 L 220.359375 220.332031 L 154.535156 220.332031 Z M 154.535156 131 " clip-rule="nonzero"/></clipPath><clipPath id="d5d21cd4a3"><path d="M 262.484375 187.472656 C 262.484375 228.886719 228.914062 262.460938 187.5 262.460938 C 146.085938 262.460938 112.515625 228.886719 112.515625 187.472656 C 112.515625 146.058594 146.085938 112.488281 187.5 112.488281 C 228.914062 112.488281 262.484375 146.058594 262.484375 187.472656 " clip-rule="nonzero"/></clipPath><clipPath id="cb04d409f8"><path d="M 217.148438 169.492188 L 224.105469 169.492188 L 224.105469 189 L 217.148438 189 Z M 217.148438 169.492188 " clip-rule="nonzero"/></clipPath><clipPath id="4125eeaa80"><path d="M 262.484375 187.472656 C 262.484375 228.886719 228.914062 262.460938 187.5 262.460938 C 146.085938 262.460938 112.515625 228.886719 112.515625 187.472656 C 112.515625 146.058594 146.085938 112.488281 187.5 112.488281 C 228.914062 112.488281 262.484375 146.058594 262.484375 187.472656 " clip-rule="nonzero"/></clipPath><clipPath id="f2b7edc41f"><path d="M 218.21875 171.097656 L 223 171.097656 L 223 186.082031 L 218.21875 186.082031 Z M 218.21875 171.097656 " clip-rule="nonzero"/></clipPath><clipPath id="af88471c00"><path d="M 262.484375 187.472656 C 262.484375 228.886719 228.914062 262.460938 187.5 262.460938 C 146.085938 262.460938 112.515625 228.886719 112.515625 187.472656 C 112.515625 146.058594 146.085938 112.488281 187.5 112.488281 C 228.914062 112.488281 262.484375 146.058594 262.484375 187.472656 " clip-rule="nonzero"/></clipPath><clipPath id="b044d3e6b2"><path d="M 219.289062 175.378906 L 221.429688 175.378906 L 221.429688 180.195312 L 219.289062 180.195312 Z M 219.289062 175.378906 " clip-rule="nonzero"/></clipPath><clipPath id="62967d254c"><path d="M 262.484375 187.472656 C 262.484375 228.886719 228.914062 262.460938 187.5 262.460938 C 146.085938 262.460938 112.515625 228.886719 112.515625 187.472656 C 112.515625 146.058594 146.085938 112.488281 187.5 112.488281 C 228.914062 112.488281 262.484375 146.058594 262.484375 187.472656 " clip-rule="nonzero"/></clipPath><clipPath id="98474cc3cc"><path d="M 151.324219 169.492188 L 158.28125 169.492188 L 158.28125 189 L 151.324219 189 Z M 151.324219 169.492188 " clip-rule="nonzero"/></clipPath><clipPath id="77b578fc75"><path d="M 262.484375 187.472656 C 262.484375 228.886719 228.914062 262.460938 187.5 262.460938 C 146.085938 262.460938 112.515625 228.886719 112.515625 187.472656 C 112.515625 146.058594 146.085938 112.488281 187.5 112.488281 C 228.914062 112.488281 262.484375 146.058594 262.484375 187.472656 " clip-rule="nonzero"/></clipPath><clipPath id="be4df72945"><path d="M 152.394531 171.097656 L 157.210938 171.097656 L 157.210938 186.082031 L 152.394531 186.082031 Z M 152.394531 171.097656 " clip-rule="nonzero"/></clipPath><clipPath id="aed977d6a3"><path d="M 262.484375 187.472656 C 262.484375 228.886719 228.914062 262.460938 187.5 262.460938 C 146.085938 262.460938 112.515625 228.886719 112.515625 187.472656 C 112.515625 146.058594 146.085938 112.488281 187.5 112.488281 C 228.914062 112.488281 262.484375 146.058594 262.484375 187.472656 " clip-rule="nonzero"/></clipPath><clipPath id="43e11a3bce"><path d="M 154.535156 175.378906 L 156.675781 175.378906 L 156.675781 180.195312 L 154.535156 180.195312 Z M 154.535156 175.378906 " clip-rule="nonzero"/></clipPath><clipPath id="641708236a"><path d="M 262.484375 187.472656 C 262.484375 228.886719 228.914062 262.460938 187.5 262.460938 C 146.085938 262.460938 112.515625 228.886719 112.515625 187.472656 C 112.515625 146.058594 146.085938 112.488281 187.5 112.488281 C 228.914062 112.488281 262.484375 146.058594 262.484375 187.472656 " clip-rule="nonzero"/></clipPath><clipPath id="2479bcce09"><path d="M 120 225.683594 L 255 225.683594 L 255 262.5 L 120 262.5 Z M 120 225.683594 " clip-rule="nonzero"/></clipPath><clipPath id="1a944e3b1a"><path d="M 262.484375 187.472656 C 262.484375 228.886719 228.914062 262.460938 187.5 262.460938 C 146.085938 262.460938 112.515625 228.886719 112.515625 187.472656 C 112.515625 146.058594 146.085938 112.488281 187.5 112.488281 C 228.914062 112.488281 262.484375 146.058594 262.484375 187.472656 " clip-rule="nonzero"/></clipPath><clipPath id="b24f856745"><path d="M 151 120.257812 L 223.570312 120.257812 L 223.570312 180.195312 L 151 180.195312 Z M 151 120.257812 " clip-rule="nonzero"/></clipPath><clipPath id="6d23ee5206"><path d="M 262.484375 187.472656 C 262.484375 228.886719 228.914062 262.460938 187.5 262.460938 C 146.085938 262.460938 112.515625 228.886719 112.515625 187.472656 C 112.515625 146.058594 146.085938 112.488281 187.5 112.488281 C 228.914062 112.488281 262.484375 146.058594 262.484375 187.472656 " clip-rule="nonzero"/></clipPath></defs><g clip-path="url(#6b3c2830dc)"><path fill="#ee292d" d="M 262.484375 187.472656 C 262.484375 228.886719 228.914062 262.460938 187.5 262.460938 C 146.085938 262.460938 112.515625 228.886719 112.515625 187.472656 C 112.515625 146.058594 146.085938 112.488281 187.5 112.488281 C 228.914062 112.488281 262.484375 146.058594 262.484375 187.472656 " fill-opacity="1" fill-rule="nonzero"/></g><g clip-path="url(#fa9dc58c0a)"><g clip-path="url(#2b4b9c2ee8)"><path fill="#f9ab7b" d="M 172.3125 228.644531 L 202.6875 228.644531 L 202.6875 208.535156 L 172.3125 208.535156 Z M 172.3125 228.644531 " fill-opacity="1" fill-rule="nonzero"/></g></g><g clip-path="url(#ddd36e1990)"><g clip-path="url(#0fa91e76f8)"><path fill="#ce8d65" d="M 184.046875 223.4375 C 179.980469 223.4375 176.007812 222.433594 172.3125 220.082031 L 172.3125 212.875 C 177.28125 217.402344 182.480469 220.066406 186.65625 220.066406 C 191.816406 220.066406 197.492188 217.304688 202.6875 212.550781 L 202.6875 217.582031 C 196.722656 221.074219 190.277344 223.4375 184.046875 223.4375 " fill-opacity="1" fill-rule="nonzero"/></g></g><g clip-path="url(#53490abe7c)"><g clip-path="url(#d5d21cd4a3)"><path fill="#f9ab7b" d="M 220.125 175.628906 C 217.875 200.378906 200.4375 220.066406 186.65625 220.066406 C 174.84375 220.066406 154.875 198.765625 154.875 174.222656 C 154.875 149.675781 166.617188 131.1875 186.65625 131.1875 C 206.695312 131.1875 220.125 151.085938 220.125 175.628906 " fill-opacity="1" fill-rule="nonzero"/></g></g><g clip-path="url(#cb04d409f8)"><g clip-path="url(#4125eeaa80)"><path fill="#f9ab7b" d="M 218.15625 172.535156 C 218.191406 171.800781 220.246094 170.34375 220.808594 170.066406 C 225.140625 167.921875 224.019531 176.851562 223.765625 178.8125 C 223.242188 182.84375 221.589844 187.488281 217.382812 188.914062 L 218.15625 172.535156 " fill-opacity="1" fill-rule="nonzero"/></g></g><g clip-path="url(#f2b7edc41f)"><g clip-path="url(#af88471c00)"><path fill="#d69369" d="M 219.546875 186.011719 C 219.242188 186.011719 218.917969 185.867188 218.578125 185.550781 C 218.378906 185.363281 218.507812 184.792969 218.738281 184.734375 C 219.664062 184.492188 220.4375 184.433594 221.089844 182.996094 C 221.582031 181.917969 221.996094 180.6875 222.261719 179.4375 C 222.578125 177.949219 222.808594 176.375 222.652344 174.875 C 222.503906 173.5 222.128906 171.679688 221.082031 171.679688 C 221.074219 171.679688 221.066406 171.679688 221.058594 171.679688 C 221.003906 171.675781 220.953125 171.671875 220.902344 171.671875 C 220.171875 171.671875 219.609375 172.367188 219.207031 173.761719 L 219.183594 173.761719 C 219.265625 172.082031 220.1875 171.398438 221.082031 171.398438 C 221.1875 171.398438 221.292969 171.410156 221.398438 171.429688 C 222.828125 171.683594 223.019531 175.019531 222.984375 176.875 C 222.9375 179.453125 221.632812 186.011719 219.546875 186.011719 " fill-opacity="1" fill-rule="nonzero"/></g></g><g clip-path="url(#b044d3e6b2)"><g clip-path="url(#62967d254c)"><path fill="#d69369" d="M 219.851562 180.023438 C 219.375 180.023438 219.324219 178.910156 219.351562 178.4375 C 219.40625 177.558594 219.773438 176.902344 219.773438 175.980469 L 219.773438 176.257812 C 219.796875 175.898438 220.113281 175.476562 220.507812 175.476562 C 220.542969 175.476562 220.578125 175.480469 220.617188 175.484375 C 221.105469 175.582031 221.027344 176.171875 221.039062 176.59375 C 221.058594 177.316406 220.835938 179.257812 220.320312 179.761719 C 220.128906 179.945312 219.976562 180.023438 219.851562 180.023438 " fill-opacity="1" fill-rule="nonzero"/></g></g><g clip-path="url(#98474cc3cc)"><g clip-path="url(#77b578fc75)"><path fill="#f9ab7b" d="M 157.453125 172.535156 C 157.414062 171.800781 155.359375 170.34375 154.800781 170.066406 C 150.46875 167.921875 151.585938 176.851562 151.84375 178.8125 C 152.367188 182.84375 154.019531 187.488281 158.226562 188.914062 L 157.453125 172.535156 " fill-opacity="1" fill-rule="nonzero"/></g></g><g clip-path="url(#be4df72945)"><g clip-path="url(#aed977d6a3)"><path fill="#d69369" d="M 156.0625 186.011719 C 153.976562 186.011719 152.671875 179.453125 152.621094 176.875 C 152.589844 175.019531 152.78125 171.683594 154.210938 171.429688 C 154.316406 171.410156 154.421875 171.398438 154.527344 171.398438 C 155.417969 171.398438 156.339844 172.082031 156.425781 173.761719 L 156.402344 173.761719 C 156 172.367188 155.433594 171.671875 154.707031 171.671875 C 154.65625 171.671875 154.601562 171.675781 154.546875 171.679688 C 154.542969 171.679688 154.535156 171.679688 154.527344 171.679688 C 153.480469 171.679688 153.101562 173.5 152.957031 174.875 C 152.796875 176.375 153.027344 177.949219 153.347656 179.4375 C 153.613281 180.6875 154.027344 181.917969 154.519531 182.996094 C 155.167969 184.433594 155.941406 184.492188 156.871094 184.734375 C 157.097656 184.792969 157.230469 185.363281 157.027344 185.550781 C 156.691406 185.867188 156.367188 186.011719 156.0625 186.011719 " fill-opacity="1" fill-rule="nonzero"/></g></g><g clip-path="url(#43e11a3bce)"><g clip-path="url(#641708236a)"><path fill="#d69369" d="M 155.757812 180.023438 C 155.636719 180.023438 155.480469 179.945312 155.289062 179.761719 C 154.773438 179.257812 154.550781 177.316406 154.570312 176.59375 C 154.578125 176.171875 154.503906 175.582031 154.992188 175.484375 C 155.027344 175.480469 155.0625 175.476562 155.101562 175.476562 C 155.496094 175.476562 155.808594 175.898438 155.835938 176.257812 L 155.835938 175.980469 C 155.835938 176.902344 156.203125 177.558594 156.253906 178.4375 C 156.285156 178.910156 156.234375 180.023438 155.757812 180.023438 " fill-opacity="1" fill-rule="nonzero"/></g></g><g clip-path="url(#2479bcce09)"><g clip-path="url(#1a944e3b1a)"><path fill="#f9ab7b" d="M 227.511719 232.492188 C 216.164062 231.78125 202 226.199219 201.078125 225.832031 L 186.945312 225.832031 L 173.855469 225.847656 C 173.855469 225.847656 159.128906 231.839844 147.394531 232.605469 C 147.394531 232.605469 119.640625 235.921875 120.175781 264.925781 L 254.820312 264.925781 C 255.421875 235.929688 227.511719 232.492188 227.511719 232.492188 " fill-opacity="1" fill-rule="nonzero"/><path fill="#393536" d="M 227.511719 232.492188 C 216.164062 231.78125 203.605469 226.21875 202.6875 225.847656 L 187.5 257.472656 L 172.3125 225.847656 C 172.3125 225.847656 159.128906 231.839844 147.394531 232.605469 C 147.394531 232.605469 119.640625 235.921875 120.175781 264.925781 L 254.820312 264.925781 C 255.421875 235.929688 227.511719 232.492188 227.511719 232.492188 " fill-opacity="1" fill-rule="nonzero"/></g></g><g clip-path="url(#b24f856745)"><g clip-path="url(#6d23ee5206)"><path fill="#351f17" d="M 217.382812 180.023438 C 217.382812 180.023438 217.550781 171.539062 220.808594 170.066406 C 220.808594 170.066406 221.070312 169.191406 222.988281 169.738281 C 222.988281 169.738281 225.472656 148.347656 215.0625 135.410156 C 215.0625 135.410156 208.875 127.53125 197.90625 127.25 C 197.90625 127.25 194.25 118.882812 179.90625 120.570312 C 179.90625 120.570312 159.65625 123.3125 152.621094 143.351562 C 152.621094 143.351562 149.480469 157.28125 152.621094 170.113281 C 152.621094 170.113281 158.226562 168.457031 157.128906 180.023438 L 158.226562 180.023438 L 159.9375 161.566406 C 159.9375 161.566406 158.808594 151.71875 164.4375 148.625 C 164.4375 148.625 170.621094 141.875 182.15625 141.03125 C 182.15625 141.03125 186.375 148.90625 200.4375 155.375 C 200.4375 155.375 197.625 151.441406 198.46875 149.75 C 198.46875 149.75 201.5625 156.21875 208.03125 161 C 208.03125 161 205.78125 157.066406 206.34375 155.660156 C 206.34375 155.660156 213.429688 157.597656 215.625 168.035156 L 216.1875 180.023438 L 217.382812 180.023438 " fill-opacity="1" fill-rule="nonzero"/></g></g></svg>