<svg xmlns="http://www.w3.org/2000/svg" xmlns:xlink="http://www.w3.org/1999/xlink" width="500" zoomAndPan="magnify" viewBox="0 0 375 374.999991" height="500" preserveAspectRatio="xMidYMid meet" version="1.0"><defs><clipPath id="841fba91ff"><path d="M 113 113.5625 L 262 113.5625 L 262 261.3125 L 113 261.3125 Z M 113 113.5625 " clip-rule="nonzero"/></clipPath><clipPath id="a5776e2fa9"><path d="M 172 221 L 203 221 L 203 261.3125 L 172 261.3125 Z M 172 221 " clip-rule="nonzero"/></clipPath></defs><g clip-path="url(#841fba91ff)"><path fill="#b0bfe2" d="M 261.0625 187.445312 C 261.148438 189.664062 261.128906 191.886719 261.003906 194.105469 C 260.882812 196.324219 260.65625 198.53125 260.324219 200.730469 C 259.992188 202.929688 259.558594 205.105469 259.019531 207.261719 C 258.484375 209.421875 257.847656 211.546875 257.109375 213.644531 C 256.371094 215.742188 255.539062 217.800781 254.605469 219.816406 C 253.675781 221.835938 252.652344 223.808594 251.535156 225.730469 C 250.417969 227.652344 249.210938 229.515625 247.921875 231.324219 C 246.628906 233.132812 245.253906 234.878906 243.796875 236.558594 C 242.335938 238.238281 240.804688 239.84375 239.195312 241.378906 C 237.585938 242.914062 235.910156 244.371094 234.164062 245.75 C 232.417969 247.125 230.613281 248.417969 228.742188 249.625 C 226.875 250.832031 224.957031 251.949219 222.980469 252.976562 C 221.007812 254.003906 218.992188 254.933594 216.929688 255.773438 C 214.871094 256.609375 212.773438 257.347656 210.644531 257.984375 C 208.515625 258.625 206.359375 259.164062 204.175781 259.601562 C 201.996094 260.035156 199.800781 260.371094 197.585938 260.601562 C 195.953125 260.78125 194.316406 260.914062 192.640625 260.964844 C 191.664062 261.015625 190.6875 261.03125 189.695312 261.03125 C 185.496094 261.027344 181.328125 260.679688 177.1875 259.988281 C 175.769531 259.738281 174.367188 259.457031 172.96875 259.128906 C 170.9375 258.65625 168.933594 258.101562 166.949219 257.464844 C 164.964844 256.828125 163.011719 256.113281 161.085938 255.316406 C 159.160156 254.523438 157.269531 253.648438 155.414062 252.699219 C 153.5625 251.75 151.75 250.730469 149.976562 249.632812 C 148.207031 248.535156 146.484375 247.367188 144.808594 246.128906 C 143.132812 244.894531 141.511719 243.589844 139.941406 242.222656 C 138.371094 240.851562 136.863281 239.421875 135.410156 237.929688 C 133.957031 236.4375 132.566406 234.886719 131.242188 233.28125 C 129.914062 231.675781 128.65625 230.019531 127.464844 228.3125 C 126.273438 226.601562 125.15625 224.851562 124.105469 223.050781 C 123.058594 221.25 122.085938 219.414062 121.1875 217.535156 C 120.289062 215.65625 119.46875 213.742188 118.726562 211.796875 C 117.984375 209.855469 117.324219 207.882812 116.742188 205.882812 C 116.160156 203.882812 115.664062 201.863281 115.246094 199.824219 C 114.828125 197.785156 114.496094 195.730469 114.25 193.664062 C 114 191.597656 113.835938 189.523438 113.753906 187.445312 C 112.488281 146.800781 144.429688 113.859375 185.097656 113.859375 C 225.769531 113.859375 259.792969 146.800781 261.0625 187.445312 Z M 261.0625 187.445312 " fill-opacity="1" fill-rule="nonzero"/></g><path fill="#3d3051" d="M 158.050781 234.855469 C 144.636719 221.238281 154.929688 206.820312 159.457031 197.6875 C 163.980469 188.558594 155.355469 174.136719 164.46875 163.082031 C 173.578125 152.027344 196.085938 153.789062 204.578125 161.320312 C 213.070312 168.847656 209.714844 177.179688 211.898438 181.507812 C 214.082031 185.832031 221.113281 185.109375 218.5625 200.851562 C 216.011719 216.59375 230.859375 234.480469 217.722656 240.78125 C 204.589844 247.085938 173.484375 238.539062 173.484375 238.539062 Z M 158.050781 234.855469 " fill-opacity="1" fill-rule="nonzero"/><g clip-path="url(#a5776e2fa9)"><path fill="#ebefff" d="M 202.382812 222.589844 L 197.261719 242.785156 L 192.644531 260.960938 C 191.667969 261.011719 190.691406 261.027344 189.699219 261.027344 C 185.5 261.027344 181.328125 260.679688 177.1875 259.984375 L 174.621094 238.828125 L 172.617188 222.371094 C 172.746094 222.339844 172.878906 222.324219 172.996094 222.289062 C 174.476562 221.957031 175.382812 221.808594 175.382812 221.808594 L 178.804688 222.125 L 187.011719 222.886719 L 194.382812 222.207031 L 198.59375 221.808594 C 198.59375 221.808594 200.027344 222.074219 202.3125 222.570312 C 202.332031 222.574219 202.363281 222.589844 202.382812 222.589844 Z M 202.382812 222.589844 " fill-opacity="1" fill-rule="nonzero"/></g><path fill="#645189" d="M 177.1875 259.988281 C 175.773438 259.738281 174.371094 259.457031 172.96875 259.128906 C 166.964844 257.746094 161.210938 255.660156 155.714844 252.878906 C 150.214844 250.09375 145.132812 246.691406 140.464844 242.671875 C 142.144531 239.527344 144.054688 236.53125 146.199219 233.683594 C 147.773438 231.730469 150.390625 229.992188 153.425781 228.519531 C 158.273438 226.308594 163.289062 224.585938 168.476562 223.351562 C 170.070312 222.9375 171.484375 222.625 172.621094 222.375 L 174.625 238.832031 Z M 177.1875 259.988281 " fill-opacity="1" fill-rule="nonzero"/><path fill="#453963" d="M 177.1875 259.988281 C 175.773438 259.738281 174.371094 259.457031 172.96875 259.128906 C 169.960938 250.71875 166.699219 241.332031 165.339844 236.597656 C 165.003906 235.636719 164.789062 234.648438 164.6875 233.632812 C 164.894531 231.796875 167.144531 226.402344 168.472656 223.351562 C 170.066406 222.9375 171.484375 222.625 172.617188 222.375 L 174.625 238.832031 Z M 177.1875 259.988281 " fill-opacity="1" fill-rule="nonzero"/><path fill="#645189" d="M 235.851562 244.375 C 233.152344 246.640625 230.304688 248.691406 227.300781 250.53125 C 224.296875 252.371094 221.175781 253.976562 217.933594 255.351562 C 214.691406 256.726562 211.367188 257.855469 207.957031 258.734375 C 204.546875 259.613281 201.089844 260.234375 197.585938 260.601562 C 195.953125 260.78125 194.316406 260.914062 192.640625 260.964844 L 197.257812 242.785156 L 202.378906 222.59375 C 203.480469 222.839844 204.78125 223.136719 206.199219 223.488281 C 211.328125 224.773438 218.035156 226.847656 223.074219 229.613281 C 225.121094 230.65625 226.929688 232.011719 228.503906 233.683594 C 231.230469 237.058594 233.679688 240.621094 235.851562 244.375 Z M 235.851562 244.375 " fill-opacity="1" fill-rule="nonzero"/><path fill="#453963" d="M 209.910156 233.898438 C 210.011719 235.105469 208.628906 238.566406 206.53125 243.050781 C 204.125 248.199219 200.75 254.671875 197.585938 260.597656 C 195.953125 260.777344 194.316406 260.910156 192.640625 260.960938 L 197.257812 242.785156 L 202.378906 222.589844 C 203.480469 222.835938 204.78125 223.132812 206.199219 223.484375 C 207.984375 227.425781 209.707031 231.710938 209.910156 233.898438 Z M 209.910156 233.898438 " fill-opacity="1" fill-rule="nonzero"/><path fill="#b0bfe2" d="M 178.839844 215.109375 C 176.652344 215.671875 175.015625 215.832031 174.039062 217.914062 C 173.0625 219.996094 172.675781 223.105469 173.285156 224.59375 C 173.894531 226.085938 177.527344 230.808594 179.976562 231.011719 C 182.429688 231.210938 185.128906 225.203125 185.605469 225.121094 C 186.085938 225.042969 186.636719 231.089844 190.894531 231.449219 C 195.15625 231.8125 201.023438 225.84375 202.148438 223.28125 C 203.273438 220.714844 199.460938 216.214844 197.828125 215.582031 C 196.195312 214.949219 190.722656 215.589844 190.722656 215.589844 Z M 178.839844 215.109375 " fill-opacity="1" fill-rule="nonzero"/><path fill="#ffbbae" d="M 197.945312 216.96875 C 198.136719 220.566406 192.058594 225.019531 185.667969 224.558594 C 179.289062 224.101562 178.371094 221.484375 178.371094 221.484375 C 178.371094 221.484375 178.15625 217.140625 177.78125 213.339844 C 177.625 211.835938 177.453125 210.40625 177.261719 209.375 L 196.300781 200.847656 C 195.941406 203.988281 196.953125 209.519531 197.554688 213.59375 C 197.753906 214.910156 197.902344 216.082031 197.945312 216.96875 Z M 197.945312 216.96875 " fill-opacity="1" fill-rule="nonzero"/><path fill="#ea7565" d="M 197.554688 213.59375 C 191.066406 217.652344 183 215.828125 177.78125 213.339844 C 177.625 211.835938 177.453125 210.40625 177.261719 209.375 L 196.300781 200.851562 C 195.9375 203.988281 196.953125 209.519531 197.554688 213.59375 Z M 197.554688 213.59375 " fill-opacity="1" fill-rule="nonzero"/><path fill="#ffbbae" d="M 168.222656 172.902344 C 172.894531 184.863281 199.121094 184.230469 199.121094 184.230469 C 199.121094 184.230469 198.558594 192.132812 200.203125 193.207031 C 201.847656 194.277344 201.894531 185.976562 207.867188 185.519531 C 213.839844 185.058594 213.121094 196.484375 208.789062 197.867188 C 204.457031 199.246094 202.992188 196.636719 202.992188 196.636719 C 202.992188 196.636719 195.769531 213.511719 181.953125 213.511719 C 168.136719 213.511719 166.789062 197.40625 166.695312 194.339844 C 166.597656 191.269531 168.222656 172.902344 168.222656 172.902344 Z M 168.222656 172.902344 " fill-opacity="1" fill-rule="nonzero"/></svg>