<svg xmlns="http://www.w3.org/2000/svg" xmlns:xlink="http://www.w3.org/1999/xlink" width="500" zoomAndPan="magnify" viewBox="0 0 375 374.999991" height="500" preserveAspectRatio="xMidYMid meet" version="1.0"><defs><clipPath id="e2c0273f94"><path d="M 112.5 112.5 L 262.5 112.5 L 262.5 262.5 L 112.5 262.5 Z M 112.5 112.5 " clip-rule="nonzero"/></clipPath><clipPath id="28eca5fd87"><path d="M 126 125 L 249 125 L 249 262.5 L 126 262.5 Z M 126 125 " clip-rule="nonzero"/></clipPath></defs><g clip-path="url(#e2c0273f94)"><path fill="#92acdf" d="M 262.5 187.5 C 262.5 228.921875 228.921875 262.5 187.5 262.5 C 146.078125 262.5 112.5 228.921875 112.5 187.5 C 112.5 146.078125 146.078125 112.5 187.5 112.5 C 228.921875 112.5 262.5 146.078125 262.5 187.5 " fill-opacity="1" fill-rule="nonzero"/></g><g clip-path="url(#28eca5fd87)"><path fill="#cedaf0" d="M 169.414062 199.34375 C 155.53125 211.996094 140.75 211.257812 132.242188 219.773438 C 130.101562 221.90625 128.328125 226.265625 126.863281 231.636719 C 140.5 250.34375 162.578125 262.5 187.5 262.5 C 212.417969 262.5 234.496094 250.34375 248.132812 231.640625 C 246.671875 226.269531 244.898438 221.90625 242.757812 219.773438 C 234.253906 211.257812 219.46875 211.996094 205.582031 199.34375 C 205.667969 199.238281 202.378906 196.132812 202.257812 196.257812 L 202.257812 188.269531 C 205.980469 183.074219 208.457031 176.023438 209.917969 169.007812 C 210.0625 169.324219 210.257812 169.546875 210.492188 169.585938 C 211.363281 169.734375 212.449219 167.738281 212.910156 165.117188 C 213.359375 162.582031 213.046875 160.4375 212.238281 160.15625 C 213.476562 154.003906 212.832031 144.179688 210.296875 136.613281 C 207.734375 128.949219 196.648438 125.757812 188.035156 125.523438 L 188.035156 125.511719 C 188.011719 125.511719 187.992188 125.511719 187.964844 125.511719 C 187.824219 125.511719 187.691406 125.511719 187.558594 125.511719 C 187.535156 125.511719 187.519531 125.511719 187.5 125.511719 C 187.480469 125.511719 187.460938 125.511719 187.441406 125.511719 C 187.304688 125.511719 187.171875 125.511719 187.03125 125.511719 C 187 125.511719 186.984375 125.511719 186.957031 125.511719 L 186.957031 125.523438 C 178.347656 125.757812 167.261719 128.949219 164.703125 136.613281 C 162.164062 144.179688 161.523438 154.003906 162.761719 160.15625 C 161.945312 160.4375 161.636719 162.582031 162.085938 165.117188 C 162.550781 167.738281 163.632812 169.734375 164.503906 169.585938 C 164.742188 169.546875 164.929688 169.324219 165.082031 169.007812 C 166.539062 176.023438 169.019531 183.074219 172.738281 188.269531 L 172.738281 196.257812 C 172.617188 196.132812 169.324219 199.238281 169.414062 199.34375 " fill-opacity="1" fill-rule="nonzero"/></g></svg>