<svg xmlns="http://www.w3.org/2000/svg" xmlns:xlink="http://www.w3.org/1999/xlink" width="500" zoomAndPan="magnify" viewBox="0 0 375 374.999991" height="500" preserveAspectRatio="xMidYMid meet" version="1.0"><defs><clipPath id="7c732495ee"><path d="M 38 23.90625 L 328.816406 23.90625 L 328.816406 342.65625 L 38 342.65625 Z M 38 23.90625 " clip-rule="nonzero"/></clipPath></defs><path fill="#d1d0d0" d="M 271.824219 32.871094 C 271.824219 31.527344 271.875 30.191406 271.964844 28.871094 C 271.921875 28.863281 271.871094 28.859375 271.824219 28.851562 L 183.300781 29.0625 L 94.765625 28.84375 C 94.722656 28.851562 94.765625 31.519531 94.765625 32.871094 C 94.765625 62.5625 72.113281 86.957031 43.148438 89.722656 C 54.308594 210.410156 102.382812 290.847656 182.605469 337.589844 C 182.835938 337.347656 183.0625 337.097656 183.292969 336.855469 C 183.523438 337.097656 183.75 337.347656 183.980469 337.589844 C 264.210938 290.847656 312.285156 210.410156 323.441406 89.722656 C 294.480469 86.957031 271.824219 62.5625 271.824219 32.871094 Z M 271.824219 32.871094 " fill-opacity="1" fill-rule="nonzero"/><g clip-path="url(#7c732495ee)"><path fill="#92aa68" d="M 182.605469 342.527344 C 181.75 342.527344 180.898438 342.3125 180.121094 341.859375 C 138.910156 317.847656 106.128906 284.871094 82.691406 243.839844 C 58.742188 201.90625 43.78125 150.207031 38.230469 90.179688 C 37.980469 87.472656 39.96875 85.070312 42.679688 84.808594 C 55.523438 83.578125 67.421875 77.632812 76.171875 68.0625 C 84.980469 58.425781 89.828125 45.929688 89.828125 32.871094 C 89.828125 32.433594 89.820312 31.851562 89.816406 31.273438 C 89.808594 30.660156 89.800781 30.050781 89.800781 29.589844 C 89.800781 25.089844 92.746094 24.15625 94.015625 23.964844 C 94.269531 23.925781 94.519531 23.914062 94.78125 23.90625 L 183.3125 24.121094 L 271.8125 23.90625 C 272.042969 23.90625 272.324219 23.925781 272.578125 23.964844 L 272.71875 23.984375 C 275.253906 24.371094 277.070312 26.644531 276.890625 29.207031 C 276.800781 30.449219 276.765625 31.6875 276.765625 32.871094 C 276.765625 45.929688 281.613281 58.425781 290.414062 68.0625 C 299.164062 77.632812 311.054688 83.578125 323.90625 84.808594 C 326.617188 85.070312 328.609375 87.472656 328.355469 90.179688 C 322.804688 150.207031 307.847656 201.90625 283.902344 243.839844 C 260.464844 284.871094 227.683594 317.847656 186.472656 341.859375 C 185.484375 342.433594 184.363281 342.628906 183.292969 342.484375 C 183.070312 342.507812 182.835938 342.527344 182.605469 342.527344 Z M 183.300781 331.917969 C 183.476562 331.917969 183.65625 331.929688 183.835938 331.949219 C 222.433594 308.945312 253.203125 277.664062 275.332031 238.9375 C 297.953125 199.332031 312.320312 150.585938 318.070312 93.976562 C 304.675781 91.605469 292.414062 84.882812 283.128906 74.726562 C 272.863281 63.5 267.121094 48.996094 266.898438 33.796875 L 183.3125 34 L 99.707031 33.796875 C 99.484375 48.996094 93.734375 63.492188 83.476562 74.726562 C 74.191406 84.878906 61.929688 91.605469 48.535156 93.976562 C 54.28125 150.585938 68.660156 199.332031 91.273438 238.9375 C 113.394531 277.664062 144.167969 308.945312 182.769531 331.949219 C 182.9375 331.925781 183.113281 331.917969 183.300781 331.917969 C 183.292969 331.917969 183.300781 331.917969 183.300781 331.917969 Z M 183.300781 331.917969 " fill-opacity="1" fill-rule="nonzero"/></g></svg>